<?xml version="1.0" encoding="UTF-8" standalone="no"?>
<!-- Generator: Adobe Illustrator 16.0.0, SVG Export Plug-In . SVG Version: 6.00 Build 0)  -->

<svg
   xmlns:dc="http://purl.org/dc/elements/1.1/"
   xmlns:cc="http://creativecommons.org/ns#"
   xmlns:rdf="http://www.w3.org/1999/02/22-rdf-syntax-ns#"
   xmlns:svg="http://www.w3.org/2000/svg"
   xmlns="http://www.w3.org/2000/svg"
   xmlns:sodipodi="http://sodipodi.sourceforge.net/DTD/sodipodi-0.dtd"
   xmlns:inkscape="http://www.inkscape.org/namespaces/inkscape"
   version="1.1"
   id="Capa_1"
   x="0px"
   y="0px"
   width="31.771px"
   height="31.771px"
   viewBox="0 0 31.771 31.771"
   style="enable-background:new 0 0 31.771 31.771;"
   xml:space="preserve"
   inkscape:version="0.91 r13725"
   sodipodi:docname="education.svg"><metadata
     id="metadata45"><rdf:RDF><cc:Work
         rdf:about=""><dc:format>image/svg+xml</dc:format><dc:type
           rdf:resource="http://purl.org/dc/dcmitype/StillImage" /></cc:Work></rdf:RDF></metadata><defs
     id="defs43" /><sodipodi:namedview
     pagecolor="#ffffff"
     bordercolor="#666666"
     borderopacity="1"
     objecttolerance="10"
     gridtolerance="10"
     guidetolerance="10"
     inkscape:pageopacity="0"
     inkscape:pageshadow="2"
     inkscape:window-width="1920"
     inkscape:window-height="1005"
     id="namedview41"
     showgrid="false"
     inkscape:zoom="7.4281578"
     inkscape:cx="-4.4425551"
     inkscape:cy="15.8855"
     inkscape:window-x="1911"
     inkscape:window-y="-9"
     inkscape:window-maximized="1"
     inkscape:current-layer="g5" /><g
     id="g3"><g
       id="g5"><path
         d="M31.771,20.319c0-0.474-0.279-0.87-0.676-1.066V11.9c0.09-0.034,0.146-0.119,0.145-0.214c0-0.095-0.062-0.179-0.149-0.21    L15.92,6.125c-0.194-0.069-0.406-0.069-0.601,0L0.15,11.477c-0.089,0.031-0.149,0.115-0.15,0.21s0.056,0.18,0.144,0.214    l15.148,5.896c0.211,0.081,0.444,0.081,0.655,0l14.102-5.492v6.947c-0.396,0.195-0.675,0.594-0.675,1.065    c0,0.492,0.3,0.919,0.729,1.102c-0.429,0.847-0.729,2.585-0.729,3.081c0,0.661,0.537,1.197,1.198,1.197    c0.66,0,1.197-0.536,1.197-1.197c0-0.496-0.301-2.234-0.729-3.081C31.47,21.238,31.771,20.811,31.771,20.319z"
         id="path7"
         style="fill:#5d66a2;fill-opacity:1" /><path
         d="M4.888,14.87c0.001,1.696,0.002,3.692,0.002,4.009c0,3.158,4.753,5.729,10.73,5.89c5.976-0.161,10.729-2.729,10.729-5.89    c0-0.315,0-2.312,0.002-4.009l-10.406,4.051c-0.211,0.082-0.444,0.082-0.655,0L4.888,14.87z"
         id="path9"
         style="fill:#5d66a2;fill-opacity:1" /></g></g><g
     id="g11" /><g
     id="g13" /><g
     id="g15" /><g
     id="g17" /><g
     id="g19" /><g
     id="g21" /><g
     id="g23" /><g
     id="g25" /><g
     id="g27" /><g
     id="g29" /><g
     id="g31" /><g
     id="g33" /><g
     id="g35" /><g
     id="g37" /><g
     id="g39" /></svg>