<?xml version="1.0" encoding="UTF-8" standalone="no"?>
<!-- Created with Inkscape (http://www.inkscape.org/) -->

<svg
   xmlns:dc="http://purl.org/dc/elements/1.1/"
   xmlns:cc="http://creativecommons.org/ns#"
   xmlns:rdf="http://www.w3.org/1999/02/22-rdf-syntax-ns#"
   xmlns:svg="http://www.w3.org/2000/svg"
   xmlns="http://www.w3.org/2000/svg"
   xmlns:sodipodi="http://sodipodi.sourceforge.net/DTD/sodipodi-0.dtd"
   xmlns:inkscape="http://www.inkscape.org/namespaces/inkscape"
   width="171.21364mm"
   height="77.977943mm"
   viewBox="0 0 606.6625 276.2998"
   id="svg2"
   version="1.1"
   inkscape:version="0.91 r13725"
   sodipodi:docname="references.svg">
  <defs
     id="defs4" />
  <sodipodi:namedview
     id="base"
     pagecolor="#ffffff"
     bordercolor="#666666"
     borderopacity="1.0"
     inkscape:pageopacity="0.0"
     inkscape:pageshadow="2"
     inkscape:zoom="0.35"
     inkscape:cx="-521.65943"
     inkscape:cy="163.44744"
     inkscape:document-units="px"
     inkscape:current-layer="layer1"
     showgrid="false"
     inkscape:window-width="1920"
     inkscape:window-height="1005"
     inkscape:window-x="1911"
     inkscape:window-y="-9"
     inkscape:window-maximized="1"
     fit-margin-top="0"
     fit-margin-left="0"
     fit-margin-right="0"
     fit-margin-bottom="0" />
  <metadata
     id="metadata7">
    <rdf:RDF>
      <cc:Work
         rdf:about="">
        <dc:format>image/svg+xml</dc:format>
        <dc:type
           rdf:resource="http://purl.org/dc/dcmitype/StillImage" />
        <dc:title />
      </cc:Work>
    </rdf:RDF>
  </metadata>
  <g
     inkscape:label="Layer 1"
     inkscape:groupmode="layer"
     id="layer1"
     transform="translate(-73.802286,-419.50985)">
    <g
       id="g3391"
       transform="matrix(1.8247366,0,0,1.8247366,409.56438,419.50985)"
       style="fill:#5d66a2;fill-opacity:1">
      <g
         id="g3337"
         style="fill:#5d66a2;fill-opacity:1">
        <g
           id="g3339"
           style="fill:#5d66a2;fill-opacity:1">
          <polygon
             id="polygon3341"
             points="27.191,53.6 29.572,64.411 94.333,53.356 91.982,42.88 "
             style="fill:#5d66a2;fill-opacity:1" />
          <path
             id="path3343"
             d="m 39.293,108.667 2.412,10.984 26.399,-5.212 c 0,-0.037 -0.012,-0.062 -0.012,-0.098 l 0,-11.204 -28.799,5.53 z"
             inkscape:connector-curvature="0"
             style="fill:#5d66a2;fill-opacity:1" />
          <path
             id="path3345"
             d="m 35.612,91.934 32.474,-5.968 0,-8.695 c 0,-0.84 0.088,-1.662 0.243,-2.459 l -35.098,6.272 2.381,10.85 z"
             inkscape:connector-curvature="0"
             style="fill:#5d66a2;fill-opacity:1" />
          <path
             id="path3347"
             d="m 68.086,131.464 -32.76,6.723 -21.504,-98.163 84.322,-13.356 6.681,29.782 c 1.516,-0.106 3.044,-0.171 4.572,-0.201 L 96.757,0 2.959,13.649 31.618,144.642 68.132,137.054 c -0.006,-0.158 -0.045,-0.316 -0.045,-0.475 l 0,-5.115 z"
             inkscape:connector-curvature="0"
             style="fill:#5d66a2;fill-opacity:1" />
          <path
             id="path3349"
             d="m 111.395,114.342 c -20.483,0 -37.073,-6.638 -37.073,-14.827 l 0,14.827 c 0,8.184 16.59,14.833 37.073,14.833 20.472,0 37.065,-6.637 37.065,-14.833 l 0,-14.827 c -0.007,8.19 -16.6,14.827 -37.065,14.827 z"
             inkscape:connector-curvature="0"
             style="fill:#5d66a2;fill-opacity:1" />
          <path
             id="path3351"
             d="m 111.395,136.592 c -20.483,0 -37.073,-6.638 -37.073,-14.833 l 0,14.833 c 0,8.184 16.59,14.827 37.073,14.827 20.472,0 37.065,-6.631 37.065,-14.827 l 0,-14.833 c -0.007,8.196 -16.6,14.833 -37.065,14.833 z"
             inkscape:connector-curvature="0"
             style="fill:#5d66a2;fill-opacity:1" />
          <path
             id="path3353"
             d="m 111.395,62.448 c -20.483,0 -37.073,6.634 -37.073,14.823 l 0,14.834 c 0,8.189 16.59,14.833 37.073,14.833 20.472,0 37.065,-6.638 37.065,-14.833 l 0,-14.834 c -0.007,-8.184 -16.6,-14.823 -37.065,-14.823 z m 0,25.942 c -20.374,0 -33.368,-6.582 -33.368,-11.119 0,-4.53 12.994,-11.121 33.368,-11.121 20.368,0 33.363,6.591 33.363,11.121 0,4.537 -13.001,11.119 -33.363,11.119 z"
             inkscape:connector-curvature="0"
             style="fill:#5d66a2;fill-opacity:1" />
        </g>
      </g>
      <g
         id="g3355"
         style="fill:#5d66a2;fill-opacity:1" />
      <g
         id="g3357"
         style="fill:#5d66a2;fill-opacity:1" />
      <g
         id="g3359"
         style="fill:#5d66a2;fill-opacity:1" />
      <g
         id="g3361"
         style="fill:#5d66a2;fill-opacity:1" />
      <g
         id="g3363"
         style="fill:#5d66a2;fill-opacity:1" />
      <g
         id="g3365"
         style="fill:#5d66a2;fill-opacity:1" />
      <g
         id="g3367"
         style="fill:#5d66a2;fill-opacity:1" />
      <g
         id="g3369"
         style="fill:#5d66a2;fill-opacity:1" />
      <g
         id="g3371"
         style="fill:#5d66a2;fill-opacity:1" />
      <g
         id="g3373"
         style="fill:#5d66a2;fill-opacity:1" />
      <g
         id="g3375"
         style="fill:#5d66a2;fill-opacity:1" />
      <g
         id="g3377"
         style="fill:#5d66a2;fill-opacity:1" />
      <g
         id="g3379"
         style="fill:#5d66a2;fill-opacity:1" />
      <g
         id="g3381"
         style="fill:#5d66a2;fill-opacity:1" />
      <g
         id="g3383"
         style="fill:#5d66a2;fill-opacity:1" />
    </g>
    <g
       id="g3650"
       transform="matrix(0.57499708,0,0,0.57499708,38.50839,411.35542)"
       style="fill:#5d66a2;fill-opacity:1">
      <g
         id="g3610"
         style="fill:#5d66a2;fill-opacity:1">
        <path
           id="path3612"
           d="m 327.081,24.120506 -236.847,0 c -15.903,0 -28.853,12.959 -28.853,28.859 l 0,412.863004 c 0,15.924 12.95,28.863 28.853,28.863 l 290.116,0 c 15.917,0 28.855,-12.939 28.855,-28.863 l 0,-352.488 -82.124,-89.234004 z m 6.81,43.184 35.996,39.121004 -35.996,0 0,-39.121004 z m 51.081,398.539004 c 0,2.542 -2.081,4.629 -4.635,4.629 l -290.103,0 c -2.55,0 -4.619,-2.087 -4.619,-4.629 l 0,-412.864004 c 0,-2.548 2.069,-4.613 4.619,-4.613 l 219.411,0 0,70.181004 c 0,6.682 5.443,12.099 12.129,12.099 l 63.198,0 0,335.197 z m -256.608,-312.833 205.786,0 c 5.013,0 9.079,4.066 9.079,9.079 0,5.013 -4.066,9.079 -9.079,9.079 l -205.786,0 c -5.012,0 -9.079,-4.066 -9.079,-9.079 0,-5.012 4.067,-9.079 9.079,-9.079 z m 214.865,70.09 c 0,5.012 -4.066,9.079 -9.079,9.079 l -205.786,0 c -5.012,0 -9.079,-4.066 -9.079,-9.079 0,-5.013 4.067,-9.079 9.079,-9.079 l 205.786,0 c 5.013,0 9.079,4.067 9.079,9.079 z m 0,59.013 c 0,5.013 -4.066,9.079 -9.079,9.079 l -205.786,0 c -5.012,0 -9.079,-4.066 -9.079,-9.079 0,-5.013 4.067,-9.079 9.079,-9.079 l 205.786,0 c 5.013,0 9.079,4.066 9.079,9.079 z m 0,60.018 c 0,5.013 -4.066,9.079 -9.079,9.079 l -205.786,0 c -5.012,0 -9.079,-4.066 -9.079,-9.079 0,-5.013 4.067,-9.079 9.079,-9.079 l 205.786,0 c 5.013,0 9.079,4.066 9.079,9.079 z"
           inkscape:connector-curvature="0"
           style="fill:#5d66a2;fill-opacity:1" />
      </g>
      <g
         id="g3614"
         style="fill:#5d66a2;fill-opacity:1" />
      <g
         id="g3616"
         style="fill:#5d66a2;fill-opacity:1" />
      <g
         id="g3618"
         style="fill:#5d66a2;fill-opacity:1" />
      <g
         id="g3620"
         style="fill:#5d66a2;fill-opacity:1" />
      <g
         id="g3622"
         style="fill:#5d66a2;fill-opacity:1" />
      <g
         id="g3624"
         style="fill:#5d66a2;fill-opacity:1" />
      <g
         id="g3626"
         style="fill:#5d66a2;fill-opacity:1" />
      <g
         id="g3628"
         style="fill:#5d66a2;fill-opacity:1" />
      <g
         id="g3630"
         style="fill:#5d66a2;fill-opacity:1" />
      <g
         id="g3632"
         style="fill:#5d66a2;fill-opacity:1" />
      <g
         id="g3634"
         style="fill:#5d66a2;fill-opacity:1" />
      <g
         id="g3636"
         style="fill:#5d66a2;fill-opacity:1" />
      <g
         id="g3638"
         style="fill:#5d66a2;fill-opacity:1" />
      <g
         id="g3640"
         style="fill:#5d66a2;fill-opacity:1" />
      <g
         id="g3642"
         style="fill:#5d66a2;fill-opacity:1" />
    </g>
  </g>
</svg>
